<?xml version="1.0" encoding="utf-8"?>
<!-- Generator: Adobe Illustrator 21.0.0, SVG Export Plug-In . SVG Version: 6.00 Build 0)  -->
<svg version="1.1" id="Calque_1" xmlns="http://www.w3.org/2000/svg" xmlns:xlink="http://www.w3.org/1999/xlink" x="0px" y="0px"
	 viewBox="0 0 300 178.3" style="enable-background:new 0 0 300 178.3;" xml:space="preserve">
<style type="text/css">
	.st0{opacity:0.15;fill:#040404;}
</style>
<path class="st0" d="M255.1,71.5L300,46.2l-4.1-6.3C280.2,15,251.9,0,220.4,0c-52.2,0-91.5,38.3-91.5,89.1s39.3,89.1,91.5,89.1
	c31.8,0,60.1-15,75.7-39.9l3.9-6.3l-45-25.4l-3.7,6.5c-5.6,9.8-17.1,15.6-30.9,15.6c-24.5,0-39.7-15.2-39.7-39.6
	s15.2-39.6,39.7-39.6c13.8,0,25.1,5.7,31.1,15.7L255.1,71.5z"/>
<path class="st0" d="M128.3,111.1v65.6h46.9v-3.8c-3.8-2-7.5-4.2-11-6.7c-3.6-2.5-6.9-5.3-10-8.3c-4.2-4.1-8.1-8.6-11.5-13.4
	c-3-4.3-5.6-8.8-7.8-13.6c-2.8-6-5-12.3-6.5-19C128.4,111.6,128.4,111.4,128.3,111.1C128.3,111.1,128.3,111.1,128.3,111.1z"/>
<path class="st0" d="M125.9,89.1c0-37.3,19.5-68.2,49.3-83.7V1.6h-45L87.6,71.4L45,1.6H0v175.2h46.9V91.4l36,59.1h9.3L126,95.1
	C125.9,93.1,125.9,91,125.9,89.1L125.9,89.1z"/>
</svg>
