<?xml version="1.0" encoding="utf-8"?>
<!-- Generator: Adobe Illustrator 21.0.0, SVG Export Plug-In . SVG Version: 6.00 Build 0)  -->
<svg version="1.1" id="Calque_1" xmlns="http://www.w3.org/2000/svg" xmlns:xlink="http://www.w3.org/1999/xlink" x="0px" y="0px"
	 viewBox="0 0 386 253" style="enable-background:new 0 0 386 253;" xml:space="preserve">
<style type="text/css">
	.st0{opacity:0.15;fill:#040404;enable-background:new    ;}
</style>
<g>
	<!-- ["M294.6", "109.5L337.9", "85l-4-6.1c-15.2-24.1-42.5-38.6-73-38.6c-50.4", "0-88.4", "37-88.4", "86.1s38", "86.1", "88.4", "86.1 c30.7", "0", "58.1-14.5", "73.2-38.6l3.8-6.1l-43.5-24.5l-3.6", "6.3c-5.4", "9.5-16.5", "15.1-29.9", "15.1c-23.7", "0-38.4-14.7-38.4-38.3 s14.7-38.3", "38.4-38.3c13.3", "0", "24.3", "5.5", "30.1", "15.2L294.6", "109.5z"] -->
	<path class="st0" d="M294.6,109.5L337.9,85l-4-6.1c-15.2-24.1-42.5-38.6-73-38.6c-50.4,0-88.4,37-88.4,86.1s38,86.1,88.4,86.1
		c30.7,0,58.1-14.5,73.2-38.6l3.8-6.1l-43.5-24.5l-3.6,6.3c-5.4,9.5-16.5,15.1-29.9,15.1c-23.7,0-38.4-14.7-38.4-38.3
		s14.7-38.3,38.4-38.3c13.3,0,24.3,5.5,30.1,15.2L294.6,109.5z"/>
	<!-- [
  "M172",
  "147.8v63.4h45.3v-3.7c-3.7-1.9-7.2-4.1-10.6-6.5c-3.5-2.4-6.7-5.1-9.7-8c-4.1-4-7.8-8.3-11.1-12.9 c-2.9-4.2-5.4-8.5-7.5-13.1c-2.7-5.8-4.8-11.9-6.3-18.4C172.1",
  "148.2",
  "172.1",
  "148",
  "172",
  "147.8L172",
  "147.8z"] -->
	<path class="st0" d="M172,147.8v63.4h45.3v-3.7c-3.7-1.9-7.2-4.1-10.6-6.5c-3.5-2.4-6.7-5.1-9.7-8c-4.1-4-7.8-8.3-11.1-12.9
		c-2.9-4.2-5.4-8.5-7.5-13.1c-2.7-5.8-4.8-11.9-6.3-18.4C172.1,148.2,172.1,148,172,147.8L172,147.8z"/>
	<!-- ["M169.7", "126.5c0-36", "18.8-65.9", "47.6-80.9v-3.7h-43.5l-41.2", "67.4L91.5", "41.9H48.1v169.3h45.3v-82.5l34.8", "57.1h9 l32.7-53.5C169.7", "130.4", "169.7", "128.3", "169.7", "126.5L169.7", "126.5z"] -->
	<path class="st0" d="M169.7,126.5c0-36,18.8-65.9,47.6-80.9v-3.7h-43.5l-41.2,67.4L91.5,41.9H48.1v169.3h45.3v-82.5l34.8,57.1h9
		l32.7-53.5C169.7,130.4,169.7,128.3,169.7,126.5L169.7,126.5z"/>
</g>
</svg>
